<?xml version="1.0" encoding="utf-8"?>
<!-- Generator: Adobe Illustrator 18.0.0, SVG Export Plug-In . SVG Version: 6.00 Build 0)  -->
<!DOCTYPE svg PUBLIC "-//W3C//DTD SVG 1.1//EN" "http://www.w3.org/Graphics/SVG/1.1/DTD/svg11.dtd">
<svg version="1.1" id="Layer_1" xmlns="http://www.w3.org/2000/svg" xmlns:xlink="http://www.w3.org/1999/xlink" x="0px" y="0px"
	 viewBox="0 0 769.3 280.1" enable-background="new 0 0 769.3 280.1" xml:space="preserve">
<polygon fill="#646464" points="241.3,183 245.4,172.3 249.6,183 "/>
<polygon fill="#646464" points="398.3,193.6 402.4,204.2 406.6,193.6 "/>
<polygon fill="#646464" points="550.7,193.6 554.8,204.2 559,193.6 "/>
<polygon fill="#646464" points="699.7,193.6 703.8,204.2 708,193.6 "/>
<line fill="#666766" stroke="#666766" stroke-width="2" stroke-miterlimit="10" x1="245.4" y1="181.1" x2="245.4" y2="205.2"/>
<g>
	<g>
		<line fill="none" stroke="#666766" stroke-width="2" stroke-miterlimit="10" x1="703.8" y1="206.2" x2="703.8" y2="208.8"/>
		
			<line fill="none" stroke="#666766" stroke-width="2" stroke-miterlimit="10" stroke-dasharray="6.0833,6.0833" x1="703.8" y1="214.8" x2="703.8" y2="224"/>
		<line fill="none" stroke="#666766" stroke-width="2" stroke-miterlimit="10" x1="703.8" y1="227" x2="703.8" y2="229.5"/>
	</g>
</g>
<line fill="#666766" stroke="#666766" stroke-width="2" stroke-miterlimit="10" x1="703.8" y1="205.2" x2="244.4" y2="205.2"/>
<line fill="#666766" stroke="#666766" stroke-width="2" stroke-miterlimit="10" x1="402.4" y1="171.5" x2="402.4" y2="197"/>
<line fill="#666766" stroke="#666766" stroke-width="2" stroke-miterlimit="10" x1="554.8" y1="171.5" x2="554.8" y2="198.9"/>
<line fill="#666766" stroke="#666766" stroke-width="2" stroke-miterlimit="10" x1="703.8" y1="171.5" x2="703.8" y2="209.5"/>
<polygon fill="#646464" points="61.7,183 65.8,172.3 70,183 "/>
<line fill="none" stroke="#666766" stroke-width="2" stroke-miterlimit="10" stroke-dasharray="5" x1="703.8" y1="213" x2="703.8" y2="256"/>
<g>
	<g>
		<line fill="none" stroke="#666766" stroke-width="2" stroke-miterlimit="10" x1="703.8" y1="256" x2="701.3" y2="256"/>
		
			<line fill="none" stroke="#666766" stroke-width="2" stroke-miterlimit="10" stroke-dasharray="4.9843,4.9843" x1="696.4" y1="256" x2="70.8" y2="256"/>
		<line fill="none" stroke="#666766" stroke-width="2" stroke-miterlimit="10" x1="68.3" y1="256" x2="65.8" y2="256"/>
	</g>
</g>
<g>
	<g>
		<line fill="none" stroke="#666766" stroke-width="2" stroke-miterlimit="10" x1="65.8" y1="256" x2="65.8" y2="253.5"/>
		
			<line fill="none" stroke="#666766" stroke-width="2" stroke-miterlimit="10" stroke-dasharray="4.8889,4.8889" x1="65.8" y1="248.6" x2="65.8" y2="182.6"/>
		<line fill="none" stroke="#666766" stroke-width="2" stroke-miterlimit="10" x1="65.8" y1="180.2" x2="65.8" y2="177.7"/>
	</g>
</g>
<g>
	<g>
		<line fill="none" stroke="#D7D7D7" stroke-miterlimit="10" x1="153.8" y1="0" x2="153.8" y2="2.5"/>
		
			<line fill="none" stroke="#D7D7D7" stroke-miterlimit="10" stroke-dasharray="5.0116,5.0116" x1="153.8" y1="7.5" x2="153.8" y2="215.5"/>
		<line fill="none" stroke="#D7D7D7" stroke-miterlimit="10" x1="153.8" y1="218" x2="153.8" y2="220.5"/>
	</g>
</g>
<polygon fill="#231F20" points="162.8,111.7 173.5,107.6 162.8,103.4 "/>
<polygon fill="#231F20" points="323.8,111.7 334.5,107.6 323.8,103.4 "/>
<polygon fill="#231F20" points="478.2,111.7 488.8,107.6 478.2,103.4 "/>
<polygon fill="#231F20" points="627.2,111.7 637.8,107.6 627.2,103.4 "/>
<g>
	<path opacity="0.5" fill="#57ABBF" d="M66,39.5c-36.5,0-66,29.5-66,66s29.5,66,66,66c36.5,0,66-29.5,66-66S102.5,39.5,66,39.5z
		 M66,156.5c-28.2,0-51-22.8-51-51s22.8-51,51-51c28.2,0,51,22.8,51,51S94.2,156.5,66,156.5z"/>
	<path fill="#57ABBF" d="M58.4,103.9c-0.3,0-0.6,0.1-0.8,0.2c-0.2,0.1-0.4,0.3-0.5,0.4c-0.1,0.2-0.2,0.3-0.3,0.5
		c-0.1,0.2-0.1,0.4-0.1,0.5h3.5c-0.1-0.5-0.3-1-0.5-1.2C59.3,104,58.9,103.9,58.4,103.9z"/>
	<path fill="#57ABBF" d="M84.8,103.9c-0.3,0-0.6,0.1-0.8,0.2c-0.2,0.1-0.4,0.3-0.5,0.4c-0.1,0.2-0.2,0.3-0.3,0.5
		c-0.1,0.2-0.1,0.4-0.1,0.5h3.5c-0.1-0.5-0.3-1-0.5-1.2C85.7,104,85.3,103.9,84.8,103.9z"/>
	<path fill="#57ABBF" d="M50.4,102.5c-0.2-0.3-0.6-0.5-1-0.7c-0.4-0.2-0.9-0.2-1.5-0.2h-1.7v6.8h2.1c0.3,0,0.7-0.1,1-0.2
		c0.3-0.1,0.6-0.3,0.9-0.5s0.5-0.6,0.6-1c0.1-0.4,0.2-0.9,0.2-1.5c0-0.5-0.1-1-0.2-1.5C50.9,103.2,50.7,102.8,50.4,102.5z"/>
	<path fill="#57ABBF" d="M66,54.5c-28.2,0-51,22.8-51,51s22.8,51,51,51c28.2,0,51-22.8,51-51S94.2,54.5,66,54.5z M53.2,107
		c-0.2,0.7-0.5,1.2-0.9,1.7c-0.4,0.5-0.9,0.9-1.5,1.1c-0.6,0.3-1.3,0.4-2.1,0.4H44V99.5h4.6c0.7,0,1.3,0.1,1.9,0.3
		c0.6,0.2,1.1,0.5,1.5,1c0.4,0.4,0.8,1,1,1.6s0.4,1.4,0.4,2.3C53.5,105.6,53.4,106.3,53.2,107z M57.2,108.4c0.3,0.3,0.8,0.5,1.4,0.5
		c0.4,0,0.8-0.1,1.1-0.3c0.3-0.2,0.5-0.4,0.6-0.7h1.9c-0.3,0.9-0.8,1.6-1.4,2c-0.6,0.4-1.4,0.6-2.2,0.6c-0.6,0-1.2-0.1-1.6-0.3
		c-0.5-0.2-0.9-0.5-1.2-0.8c-0.3-0.4-0.6-0.8-0.8-1.3s-0.3-1-0.3-1.7c0-0.6,0.1-1.1,0.3-1.6c0.2-0.5,0.5-0.9,0.8-1.3
		s0.8-0.7,1.3-0.9c0.5-0.2,1-0.3,1.6-0.3c0.7,0,1.2,0.1,1.7,0.4c0.5,0.3,0.9,0.6,1.2,1s0.5,0.9,0.7,1.5s0.2,1.1,0.2,1.7h-5.6
		C56.7,107.6,56.8,108.1,57.2,108.4z M67.7,101.2c-0.2,0-0.5,0-0.8,0c-0.3,0-0.5,0.1-0.6,0.2s-0.2,0.4-0.2,0.7v0.5h1.5v1.4h-1.5v6.3
		H64v-6.3h-1.3v-1.4H64v-0.6c0-0.7,0.2-1.3,0.6-1.7c0.4-0.4,1.1-0.7,2-0.7c0.2,0,0.4,0,0.6,0s0.4,0,0.6,0V101.2z M70.7,110.2h-2.1
		v-7.8h2.1V110.2z M70.7,101.3h-2.1v-1.8h2.1V101.3z M79.6,110.2h-2.1v-4.4c0-0.6-0.1-1.1-0.3-1.4c-0.2-0.3-0.6-0.5-1.1-0.5
		c-0.6,0-1,0.2-1.3,0.5c-0.3,0.3-0.4,0.9-0.4,1.7v4.1h-2.1v-7.8h2v1.1h0c0.3-0.5,0.6-0.8,1.1-1c0.4-0.2,0.9-0.3,1.3-0.3
		c0.6,0,1,0.1,1.4,0.2s0.7,0.4,0.9,0.6c0.2,0.3,0.4,0.6,0.4,1c0.1,0.4,0.1,0.8,0.1,1.3V110.2z M83.5,108.4c0.3,0.3,0.8,0.5,1.4,0.5
		c0.4,0,0.8-0.1,1.1-0.3c0.3-0.2,0.5-0.4,0.6-0.7h1.9c-0.3,0.9-0.8,1.6-1.4,2c-0.6,0.4-1.4,0.6-2.2,0.6c-0.6,0-1.2-0.1-1.6-0.3
		c-0.5-0.2-0.9-0.5-1.2-0.8c-0.3-0.4-0.6-0.8-0.8-1.3s-0.3-1-0.3-1.7c0-0.6,0.1-1.1,0.3-1.6c0.2-0.5,0.5-0.9,0.8-1.3
		s0.8-0.7,1.3-0.9c0.5-0.2,1-0.3,1.6-0.3c0.7,0,1.2,0.1,1.7,0.4c0.5,0.3,0.9,0.6,1.2,1s0.5,0.9,0.7,1.5s0.2,1.1,0.2,1.7H83
		C83,107.6,83.2,108.1,83.5,108.4z"/>
</g>
<g>
	<path opacity="0.5" fill="#ECB52F" d="M245.2,39.5c-36.5,0-66,29.5-66,66s29.5,66,66,66s66-29.5,66-66S281.7,39.5,245.2,39.5z
		 M245.2,156.5c-28.2,0-51-22.8-51-51s22.8-51,51-51s51,22.8,51,51S273.4,156.5,245.2,156.5z"/>
	<path fill="#ECB52F" d="M245.2,54.5c-28.2,0-51,22.8-51,51s22.8,51,51,51s51-22.8,51-51S273.4,54.5,245.2,54.5z M226.3,110.2h-2.4
		V99.5h2.4V110.2z M235.7,110.2h-2v-1h0c-0.2,0.4-0.6,0.7-1,0.9c-0.4,0.2-0.9,0.3-1.4,0.3c-0.6,0-1.1-0.1-1.5-0.3
		c-0.4-0.2-0.8-0.5-1.1-0.9c-0.3-0.4-0.5-0.8-0.6-1.3s-0.2-1-0.2-1.6c0-0.5,0.1-1,0.2-1.5c0.1-0.5,0.4-0.9,0.6-1.3
		c0.3-0.4,0.6-0.7,1.1-0.9c0.4-0.2,0.9-0.3,1.5-0.3c0.5,0,0.9,0.1,1.3,0.3c0.4,0.2,0.7,0.5,1,0.9h0v-3.9h2.1V110.2z M239.5,108.4
		c0.3,0.3,0.8,0.5,1.4,0.5c0.4,0,0.8-0.1,1.1-0.3c0.3-0.2,0.5-0.4,0.6-0.7h1.9c-0.3,0.9-0.8,1.6-1.4,2c-0.6,0.4-1.4,0.6-2.2,0.6
		c-0.6,0-1.2-0.1-1.6-0.3c-0.5-0.2-0.9-0.5-1.2-0.8c-0.3-0.4-0.6-0.8-0.8-1.3s-0.3-1-0.3-1.7c0-0.6,0.1-1.1,0.3-1.6
		c0.2-0.5,0.5-0.9,0.8-1.3s0.8-0.7,1.3-0.9c0.5-0.2,1-0.3,1.6-0.3c0.7,0,1.2,0.1,1.7,0.4c0.5,0.3,0.9,0.6,1.2,1s0.5,0.9,0.7,1.5
		s0.2,1.1,0.2,1.7H239C239.1,107.6,239.2,108.1,239.5,108.4z M250.9,110.2c0-0.1-0.1-0.2-0.1-0.4c0-0.1,0-0.3-0.1-0.4
		c-0.3,0.4-0.7,0.6-1.2,0.7c-0.5,0.1-0.9,0.2-1.4,0.2c-0.4,0-0.7,0-1-0.1c-0.3-0.1-0.6-0.2-0.8-0.4c-0.2-0.2-0.4-0.4-0.6-0.7
		c-0.1-0.3-0.2-0.6-0.2-1c0-0.4,0.1-0.8,0.2-1.1c0.2-0.3,0.4-0.5,0.6-0.7s0.5-0.3,0.8-0.4s0.6-0.2,1-0.2c0.3,0,0.6-0.1,0.9-0.1
		s0.6-0.1,0.8-0.1c0.2-0.1,0.4-0.1,0.6-0.3s0.2-0.3,0.2-0.5c0-0.2,0-0.4-0.1-0.5c-0.1-0.1-0.2-0.2-0.3-0.3s-0.3-0.1-0.4-0.2
		c-0.2,0-0.3,0-0.5,0c-0.4,0-0.8,0.1-1,0.3c-0.2,0.2-0.4,0.5-0.4,0.9h-2.1c0-0.5,0.2-0.9,0.4-1.2c0.2-0.3,0.5-0.6,0.8-0.8
		c0.3-0.2,0.7-0.3,1.1-0.4c0.4-0.1,0.9-0.1,1.3-0.1c0.4,0,0.8,0,1.2,0.1c0.4,0.1,0.8,0.2,1.1,0.3c0.3,0.2,0.6,0.4,0.8,0.7
		s0.3,0.7,0.3,1.1v4c0,0.3,0,0.7,0.1,1c0,0.3,0.1,0.6,0.2,0.7H250.9z M258.7,103.9h-1.6v3.8c0,0.4,0.1,0.6,0.2,0.7
		c0.1,0.1,0.4,0.2,0.7,0.2c0.1,0,0.2,0,0.3,0c0.1,0,0.2,0,0.3,0v1.7c-0.2,0-0.4,0-0.6,0.1c-0.2,0-0.4,0-0.6,0c-0.3,0-0.6,0-0.9-0.1
		c-0.3,0-0.6-0.1-0.8-0.3s-0.4-0.3-0.5-0.6c-0.1-0.2-0.2-0.6-0.2-0.9v-4.6h-1.3v-1.4h1.3v-2.3h2.1v2.3h1.6V103.9z M262,108.4
		c0.3,0.3,0.8,0.5,1.4,0.5c0.4,0,0.8-0.1,1.1-0.3c0.3-0.2,0.5-0.4,0.6-0.7h1.9c-0.3,0.9-0.8,1.6-1.4,2c-0.6,0.4-1.4,0.6-2.2,0.6
		c-0.6,0-1.2-0.1-1.6-0.3c-0.5-0.2-0.9-0.5-1.2-0.8c-0.3-0.4-0.6-0.8-0.8-1.3s-0.3-1-0.3-1.7c0-0.6,0.1-1.1,0.3-1.6
		c0.2-0.5,0.5-0.9,0.8-1.3s0.8-0.7,1.3-0.9c0.5-0.2,1-0.3,1.6-0.3c0.7,0,1.2,0.1,1.7,0.4c0.5,0.3,0.9,0.6,1.2,1s0.5,0.9,0.7,1.5
		s0.2,1.1,0.2,1.7h-5.6C261.6,107.6,261.7,108.1,262,108.4z"/>
	<path fill="#ECB52F" d="M233.2,104.6c-0.1-0.2-0.3-0.4-0.6-0.5c-0.2-0.1-0.5-0.2-0.9-0.2s-0.6,0.1-0.9,0.2
		c-0.2,0.1-0.4,0.3-0.6,0.6c-0.1,0.2-0.2,0.5-0.3,0.8s-0.1,0.6-0.1,0.9c0,0.3,0,0.6,0.1,0.9c0.1,0.3,0.2,0.6,0.3,0.8
		c0.2,0.2,0.3,0.4,0.6,0.6c0.2,0.1,0.5,0.2,0.8,0.2c0.4,0,0.6-0.1,0.9-0.2c0.2-0.1,0.4-0.3,0.6-0.6c0.1-0.2,0.2-0.5,0.3-0.8
		s0.1-0.6,0.1-0.9c0-0.3,0-0.6-0.1-0.9S233.4,104.9,233.2,104.6z"/>
	<path fill="#ECB52F" d="M240.8,103.9c-0.3,0-0.6,0.1-0.8,0.2c-0.2,0.1-0.4,0.3-0.5,0.4c-0.1,0.2-0.2,0.3-0.3,0.5
		c-0.1,0.2-0.1,0.4-0.1,0.5h3.5c-0.1-0.5-0.3-1-0.5-1.2C241.7,104,241.3,103.9,240.8,103.9z"/>
	<path fill="#ECB52F" d="M263.3,103.9c-0.3,0-0.6,0.1-0.8,0.2c-0.2,0.1-0.4,0.3-0.5,0.4c-0.1,0.2-0.2,0.3-0.3,0.5
		c-0.1,0.2-0.1,0.4-0.1,0.5h3.5c-0.1-0.5-0.3-1-0.5-1.2C264.2,104,263.8,103.9,263.3,103.9z"/>
	<path fill="#ECB52F" d="M249.9,106.8c-0.2,0-0.3,0.1-0.5,0.1c-0.2,0-0.3,0-0.5,0.1c-0.2,0-0.3,0.1-0.5,0.1c-0.2,0-0.3,0.1-0.4,0.2
		c-0.1,0.1-0.2,0.2-0.3,0.3s-0.1,0.3-0.1,0.5c0,0.2,0,0.4,0.1,0.5s0.2,0.2,0.3,0.3c0.1,0.1,0.3,0.1,0.4,0.2c0.2,0,0.3,0,0.5,0
		c0.4,0,0.7-0.1,1-0.2c0.2-0.1,0.4-0.3,0.5-0.5c0.1-0.2,0.2-0.4,0.2-0.6c0-0.2,0-0.4,0-0.5v-0.8c-0.1,0.1-0.2,0.1-0.3,0.2
		C250.2,106.7,250.1,106.7,249.9,106.8z"/>
</g>
<g>
	<path opacity="0.5" fill="#ECB52F" d="M401,39.5c-36.5,0-66,29.5-66,66s29.5,66,66,66s66-29.5,66-66S437.4,39.5,401,39.5z
		 M401,156.5c-28.2,0-51-22.8-51-51s22.8-51,51-51s51,22.8,51,51S429.1,156.5,401,156.5z"/>
	<path fill="#ECB52F" d="M424.4,104.7c-0.1-0.2-0.3-0.4-0.6-0.6c-0.2-0.1-0.5-0.2-0.9-0.2c-0.4,0-0.6,0.1-0.9,0.2
		c-0.2,0.1-0.4,0.3-0.6,0.6c-0.1,0.2-0.2,0.5-0.3,0.8c-0.1,0.3-0.1,0.6-0.1,0.9c0,0.3,0,0.6,0.1,0.9c0.1,0.3,0.2,0.6,0.3,0.8
		c0.1,0.2,0.3,0.4,0.6,0.5c0.2,0.1,0.5,0.2,0.9,0.2c0.3,0,0.6-0.1,0.9-0.2c0.2-0.1,0.4-0.3,0.6-0.5c0.1-0.2,0.2-0.5,0.3-0.8
		c0.1-0.3,0.1-0.6,0.1-0.9c0-0.3,0-0.6-0.1-0.9C424.6,105.2,424.5,104.9,424.4,104.7z"/>
	<path fill="#ECB52F" d="M402,104.7c-0.1-0.2-0.3-0.4-0.6-0.6c-0.2-0.1-0.5-0.2-0.9-0.2c-0.4,0-0.7,0.1-0.9,0.2
		c-0.2,0.1-0.4,0.3-0.6,0.6c-0.1,0.2-0.2,0.5-0.3,0.8c-0.1,0.3-0.1,0.6-0.1,0.9c0,0.3,0,0.6,0.1,0.9c0.1,0.3,0.2,0.6,0.3,0.8
		c0.1,0.2,0.3,0.4,0.6,0.6c0.2,0.1,0.5,0.2,0.9,0.2c0.4,0,0.7-0.1,0.9-0.2c0.2-0.1,0.4-0.3,0.6-0.6c0.1-0.2,0.2-0.5,0.3-0.8
		c0.1-0.3,0.1-0.6,0.1-0.9c0-0.3,0-0.6-0.1-0.9C402.3,105.2,402.2,104.9,402,104.7z"/>
	<path fill="#ECB52F" d="M387.6,104.7c-0.1-0.2-0.3-0.4-0.6-0.6c-0.2-0.1-0.5-0.2-0.9-0.2c-0.4,0-0.7,0.1-0.9,0.2
		c-0.2,0.1-0.4,0.3-0.6,0.6c-0.1,0.2-0.2,0.5-0.3,0.8s-0.1,0.6-0.1,0.9c0,0.3,0,0.6,0.1,0.9c0.1,0.3,0.2,0.6,0.3,0.8
		c0.1,0.2,0.3,0.4,0.6,0.6c0.2,0.1,0.5,0.2,0.9,0.2c0.4,0,0.7-0.1,0.9-0.2c0.2-0.1,0.4-0.3,0.6-0.6c0.1-0.2,0.2-0.5,0.3-0.8
		c0.1-0.3,0.1-0.6,0.1-0.9c0-0.3,0-0.6-0.1-0.9C387.8,105.2,387.7,104.9,387.6,104.7z"/>
	<path fill="#ECB52F" d="M401,54.5c-28.2,0-51,22.8-51,51s22.8,51,51,51s51-22.8,51-51S429.1,54.5,401,54.5z M375.3,104.2
		c-0.1,0.4-0.4,0.8-0.6,1.1c-0.3,0.3-0.7,0.6-1.1,0.8c-0.5,0.2-1,0.3-1.7,0.3h-2.5v3.8H367V99.5h4.8c0.7,0,1.2,0.1,1.7,0.3
		c0.5,0.2,0.9,0.5,1.1,0.8c0.3,0.3,0.5,0.7,0.6,1.1c0.1,0.4,0.2,0.8,0.2,1.3C375.5,103.4,375.5,103.8,375.3,104.2z M381.8,104.3
		c-0.1,0-0.2,0-0.4-0.1c-0.1,0-0.3,0-0.4,0c-0.4,0-0.7,0.1-1,0.2s-0.5,0.3-0.7,0.5c-0.2,0.2-0.3,0.5-0.4,0.8s-0.1,0.6-0.1,1v3.5
		h-2.1v-7.8h2v1.4h0c0.1-0.2,0.2-0.5,0.4-0.7c0.2-0.2,0.4-0.4,0.6-0.5c0.2-0.1,0.5-0.3,0.7-0.3s0.5-0.1,0.8-0.1c0.1,0,0.3,0,0.5,0.1
		V104.3z M389.8,108.1c-0.2,0.5-0.5,0.9-0.8,1.3c-0.3,0.4-0.8,0.6-1.3,0.8c-0.5,0.2-1,0.3-1.7,0.3c-0.6,0-1.2-0.1-1.6-0.3
		c-0.5-0.2-0.9-0.5-1.3-0.8c-0.4-0.4-0.6-0.8-0.8-1.3c-0.2-0.5-0.3-1.1-0.3-1.7s0.1-1.2,0.3-1.7s0.5-0.9,0.8-1.3
		c0.4-0.4,0.8-0.6,1.3-0.8c0.5-0.2,1-0.3,1.6-0.3c0.6,0,1.2,0.1,1.7,0.3c0.5,0.2,0.9,0.5,1.3,0.8c0.4,0.4,0.6,0.8,0.8,1.3
		c0.2,0.5,0.3,1.1,0.3,1.7S390,107.6,389.8,108.1z M395.8,103.9h-1.6v3.8c0,0.4,0.1,0.6,0.2,0.7c0.1,0.1,0.4,0.2,0.7,0.2
		c0.1,0,0.2,0,0.3,0c0.1,0,0.2,0,0.3,0v1.7c-0.2,0-0.4,0-0.6,0.1c-0.2,0-0.4,0-0.6,0c-0.3,0-0.6,0-0.9-0.1s-0.6-0.1-0.8-0.3
		c-0.2-0.1-0.4-0.3-0.5-0.6c-0.1-0.2-0.2-0.6-0.2-0.9v-4.6h-1.3v-1.4h1.3v-2.3h2.1v2.3h1.6V103.9z M404.3,108.1
		c-0.2,0.5-0.5,0.9-0.8,1.3c-0.4,0.4-0.8,0.6-1.3,0.8c-0.5,0.2-1,0.3-1.7,0.3c-0.6,0-1.2-0.1-1.7-0.3c-0.5-0.2-0.9-0.5-1.3-0.8
		c-0.4-0.4-0.6-0.8-0.8-1.3c-0.2-0.5-0.3-1.1-0.3-1.7s0.1-1.2,0.3-1.7c0.2-0.5,0.5-0.9,0.8-1.3c0.3-0.4,0.8-0.6,1.3-0.8
		c0.5-0.2,1-0.3,1.7-0.3c0.6,0,1.2,0.1,1.7,0.3c0.5,0.2,0.9,0.5,1.3,0.8c0.3,0.4,0.6,0.8,0.8,1.3c0.2,0.5,0.3,1.1,0.3,1.7
		S404.5,107.6,404.3,108.1z M410.2,103.9h-1.6v3.8c0,0.4,0.1,0.6,0.2,0.7c0.1,0.1,0.4,0.2,0.7,0.2c0.1,0,0.2,0,0.3,0
		c0.1,0,0.2,0,0.3,0v1.7c-0.2,0-0.4,0-0.6,0.1c-0.2,0-0.4,0-0.6,0c-0.3,0-0.6,0-0.9-0.1c-0.3,0-0.6-0.1-0.8-0.3
		c-0.2-0.1-0.4-0.3-0.5-0.6c-0.1-0.2-0.2-0.6-0.2-0.9v-4.6h-1.3v-1.4h1.3v-2.3h2.1v2.3h1.6V103.9z M415.1,111.2
		c-0.2,0.6-0.5,1.1-1,1.3c-0.4,0.3-1,0.4-1.7,0.4c-0.2,0-0.4,0-0.7,0s-0.4,0-0.7-0.1v-1.8c0.2,0,0.4,0,0.6,0.1c0.2,0,0.4,0,0.6,0
		c0.3,0,0.5-0.1,0.6-0.3c0.1-0.2,0.2-0.4,0.2-0.6c0-0.2,0-0.3-0.1-0.5l-2.7-7.3h2.3l1.8,5.3h0l1.7-5.3h2.2L415.1,111.2z M426.7,108
		c-0.1,0.5-0.4,0.9-0.6,1.3c-0.3,0.4-0.6,0.7-1.1,0.9s-0.9,0.3-1.5,0.3c-0.5,0-0.9-0.1-1.3-0.3c-0.4-0.2-0.7-0.5-1-0.9h0v3.7H419
		v-10.5h2v1h0c0.3-0.4,0.6-0.7,1-0.9c0.4-0.2,0.8-0.3,1.3-0.3c0.6,0,1.1,0.1,1.6,0.3c0.4,0.2,0.8,0.5,1.1,0.9s0.5,0.8,0.6,1.3
		c0.1,0.5,0.2,1,0.2,1.6C426.9,107,426.8,107.5,426.7,108z M430.5,108.4c0.3,0.3,0.8,0.5,1.4,0.5c0.4,0,0.8-0.1,1.1-0.3
		c0.3-0.2,0.5-0.4,0.6-0.7h1.9c-0.3,0.9-0.8,1.6-1.4,2c-0.6,0.4-1.4,0.6-2.2,0.6c-0.6,0-1.2-0.1-1.6-0.3c-0.5-0.2-0.9-0.5-1.2-0.8
		c-0.3-0.4-0.6-0.8-0.8-1.3c-0.2-0.5-0.3-1-0.3-1.7c0-0.6,0.1-1.1,0.3-1.6c0.2-0.5,0.5-0.9,0.8-1.3c0.4-0.4,0.8-0.7,1.3-0.9
		s1-0.3,1.6-0.3c0.7,0,1.2,0.1,1.7,0.4c0.5,0.3,0.9,0.6,1.2,1c0.3,0.4,0.5,0.9,0.7,1.5c0.1,0.5,0.2,1.1,0.2,1.7h-5.6
		C430,107.6,430.1,108.1,430.5,108.4z"/>
	<path fill="#ECB52F" d="M372.6,101.7c-0.2-0.1-0.4-0.2-0.7-0.2c-0.2,0-0.5-0.1-0.8-0.1h-1.8v3.2h1.8c0.3,0,0.5,0,0.8-0.1
		c0.2,0,0.5-0.1,0.7-0.2c0.2-0.1,0.3-0.3,0.5-0.5c0.1-0.2,0.2-0.5,0.2-0.8c0-0.3-0.1-0.6-0.2-0.8C373,101.9,372.8,101.8,372.6,101.7
		z"/>
	<path fill="#ECB52F" d="M431.7,103.9c-0.3,0-0.6,0.1-0.8,0.2s-0.4,0.3-0.5,0.4s-0.2,0.3-0.3,0.5c-0.1,0.2-0.1,0.4-0.1,0.5h3.5
		c-0.1-0.5-0.3-1-0.5-1.2C432.6,104,432.2,103.9,431.7,103.9z"/>
</g>
<g>
	<path opacity="0.5" fill="#B8395C" d="M554.8,39.5c-36.5,0-66,29.5-66,66s29.5,66,66,66s66-29.5,66-66S591.3,39.5,554.8,39.5z
		 M554.8,156.5c-28.2,0-51-22.8-51-51s22.8-51,51-51s51,22.8,51,51S583,156.5,554.8,156.5z"/>
	<path fill="#B8395C" d="M542.6,105.5h-2.6v2.9h2.5c0.2,0,0.5,0,0.7-0.1s0.4-0.1,0.6-0.2c0.2-0.1,0.3-0.2,0.4-0.4
		c0.1-0.2,0.1-0.4,0.1-0.7c0-0.5-0.2-0.9-0.5-1.2C543.5,105.6,543.1,105.5,542.6,105.5z"/>
	<path fill="#B8395C" d="M569.8,104.6c-0.1-0.2-0.3-0.4-0.6-0.5c-0.2-0.1-0.5-0.2-0.9-0.2c-0.3,0-0.6,0.1-0.9,0.2
		c-0.2,0.1-0.4,0.3-0.6,0.6c-0.1,0.2-0.2,0.5-0.3,0.8c-0.1,0.3-0.1,0.6-0.1,0.9c0,0.3,0,0.6,0.1,0.9c0.1,0.3,0.2,0.6,0.3,0.8
		c0.2,0.2,0.3,0.4,0.6,0.6c0.2,0.1,0.5,0.2,0.8,0.2c0.4,0,0.6-0.1,0.9-0.2c0.2-0.1,0.4-0.3,0.6-0.6c0.1-0.2,0.2-0.5,0.3-0.8
		c0.1-0.3,0.1-0.6,0.1-0.9c0-0.3,0-0.6-0.1-0.9C570,105.1,569.9,104.9,569.8,104.6z"/>
	<path fill="#B8395C" d="M543.5,103.6c0.3-0.2,0.4-0.5,0.4-1c0-0.2,0-0.5-0.1-0.6s-0.2-0.3-0.4-0.4c-0.2-0.1-0.3-0.2-0.5-0.2
		c-0.2,0-0.4-0.1-0.6-0.1h-2.2v2.5h2.4C542.9,103.9,543.2,103.8,543.5,103.6z"/>
	<path fill="#B8395C" d="M554.8,54.5c-28.2,0-51,22.8-51,51s22.8,51,51,51s51-22.8,51-51S583,54.5,554.8,54.5z M546.4,108.5
		c-0.2,0.4-0.5,0.7-0.8,1c-0.4,0.2-0.8,0.4-1.2,0.6s-0.9,0.2-1.4,0.2h-5.2V99.5h5c0.5,0,1,0,1.4,0.1c0.4,0.1,0.8,0.2,1.1,0.4
		c0.3,0.2,0.5,0.5,0.7,0.8c0.2,0.3,0.2,0.8,0.2,1.3c0,0.5-0.1,1-0.4,1.3s-0.6,0.7-1.1,0.9c0.7,0.2,1.2,0.5,1.5,1s0.5,1,0.5,1.7
		C546.7,107.7,546.6,108.2,546.4,108.5z M555.3,110.2h-2v-1.1h0c-0.3,0.5-0.6,0.8-1,1c-0.4,0.2-0.9,0.3-1.3,0.3
		c-0.6,0-1-0.1-1.4-0.2c-0.4-0.1-0.7-0.4-0.9-0.6c-0.2-0.3-0.4-0.6-0.4-1c-0.1-0.4-0.1-0.8-0.1-1.3v-4.8h2.1v4.4
		c0,0.6,0.1,1.1,0.3,1.4c0.2,0.3,0.6,0.5,1.1,0.5c0.6,0,1-0.2,1.3-0.5s0.4-0.9,0.4-1.7v-4.1h2.1V110.2z M559.1,110.2H557v-7.8h2.1
		V110.2z M559.1,101.3H557v-1.8h2.1V101.3z M563,110.2h-2.1V99.5h2.1V110.2z M572.2,110.2h-2v-1h0c-0.2,0.4-0.6,0.7-1,0.9
		c-0.4,0.2-0.9,0.3-1.4,0.3c-0.6,0-1.1-0.1-1.5-0.3s-0.8-0.5-1.1-0.9c-0.3-0.4-0.5-0.8-0.6-1.3c-0.1-0.5-0.2-1-0.2-1.6
		c0-0.5,0.1-1,0.2-1.5c0.1-0.5,0.4-0.9,0.6-1.3c0.3-0.4,0.6-0.7,1.1-0.9c0.4-0.2,0.9-0.3,1.5-0.3c0.5,0,0.9,0.1,1.3,0.3
		c0.4,0.2,0.7,0.5,1,0.9h0v-3.9h2.1V110.2z"/>
</g>
<g>
	<path opacity="0.5" fill="#57ABBF" d="M703.3,39.5c-36.5,0-66,29.5-66,66s29.5,66,66,66c36.5,0,66-29.5,66-66
		S739.8,39.5,703.3,39.5z M703.3,156.5c-28.2,0-51-22.8-51-51s22.8-51,51-51c28.2,0,51,22.8,51,51S731.5,156.5,703.3,156.5z"/>
	<path fill="#57ABBF" d="M727,103.9c-0.3,0-0.6,0.1-0.8,0.2s-0.4,0.3-0.5,0.4s-0.2,0.3-0.3,0.5c-0.1,0.2-0.1,0.4-0.1,0.5h3.5
		c-0.1-0.5-0.3-1-0.5-1.2C727.9,104,727.5,103.9,727,103.9z"/>
	<path fill="#57ABBF" d="M699.5,106.8c-0.2,0-0.3,0.1-0.5,0.1c-0.2,0-0.3,0-0.5,0.1c-0.2,0-0.3,0.1-0.5,0.1c-0.2,0-0.3,0.1-0.4,0.2
		c-0.1,0.1-0.2,0.2-0.3,0.3c-0.1,0.1-0.1,0.3-0.1,0.5c0,0.2,0,0.4,0.1,0.5c0.1,0.1,0.2,0.2,0.3,0.3c0.1,0.1,0.3,0.1,0.4,0.2
		c0.2,0,0.3,0,0.5,0c0.4,0,0.7-0.1,1-0.2c0.2-0.1,0.4-0.3,0.5-0.5c0.1-0.2,0.2-0.4,0.2-0.6c0-0.2,0-0.4,0-0.5v-0.8
		c-0.1,0.1-0.2,0.1-0.3,0.2S699.6,106.7,699.5,106.8z"/>
	<polygon fill="#57ABBF" points="680.6,102.2 679.2,106.1 681.9,106.1 680.6,102.2 	"/>
	<path fill="#57ABBF" d="M703.3,54.5c-28.2,0-51,22.8-51,51s22.8,51,51,51c28.2,0,51-22.8,51-51S731.5,54.5,703.3,54.5z
		 M683.4,110.2l-0.8-2.4h-4l-0.8,2.4h-2.4l4-10.7h2.4l4,10.7H683.4z M693.8,110.2h-2.1v-4.4c0-0.6-0.1-1.1-0.3-1.4
		c-0.2-0.3-0.6-0.5-1.1-0.5c-0.6,0-1,0.2-1.3,0.5c-0.3,0.3-0.4,0.9-0.4,1.7v4.1h-2.1v-7.8h2v1.1h0c0.3-0.5,0.6-0.8,1-1
		s0.9-0.3,1.3-0.3c0.6,0,1,0.1,1.4,0.2s0.7,0.4,0.9,0.6c0.2,0.3,0.4,0.6,0.4,1c0.1,0.4,0.1,0.8,0.1,1.3V110.2z M700.5,110.2
		c0-0.1-0.1-0.2-0.1-0.4c0-0.1,0-0.3-0.1-0.4c-0.3,0.4-0.7,0.6-1.2,0.7c-0.5,0.1-0.9,0.2-1.4,0.2c-0.4,0-0.7,0-1-0.1
		c-0.3-0.1-0.6-0.2-0.8-0.4c-0.2-0.2-0.4-0.4-0.6-0.7s-0.2-0.6-0.2-1c0-0.4,0.1-0.8,0.2-1.1c0.2-0.3,0.4-0.5,0.6-0.7
		s0.5-0.3,0.8-0.4c0.3-0.1,0.6-0.2,1-0.2c0.3,0,0.6-0.1,0.9-0.1c0.3,0,0.6-0.1,0.8-0.1c0.2-0.1,0.4-0.1,0.6-0.3
		c0.1-0.1,0.2-0.3,0.2-0.5c0-0.2,0-0.4-0.1-0.5c-0.1-0.1-0.2-0.2-0.3-0.3s-0.3-0.1-0.4-0.2c-0.2,0-0.3,0-0.5,0c-0.4,0-0.8,0.1-1,0.3
		c-0.2,0.2-0.4,0.5-0.4,0.9h-2.1c0-0.5,0.2-0.9,0.4-1.2c0.2-0.3,0.5-0.6,0.8-0.8c0.3-0.2,0.7-0.3,1.1-0.4c0.4-0.1,0.9-0.1,1.3-0.1
		c0.4,0,0.8,0,1.2,0.1c0.4,0.1,0.8,0.2,1.1,0.3c0.3,0.2,0.6,0.4,0.8,0.7s0.3,0.7,0.3,1.1v4c0,0.3,0,0.7,0.1,1s0.1,0.6,0.2,0.7H700.5
		z M706.2,110.2h-2.1V99.5h2.1V110.2z M711.7,111.2c-0.2,0.6-0.5,1.1-1,1.3c-0.4,0.3-1,0.4-1.7,0.4c-0.2,0-0.4,0-0.7,0
		s-0.4,0-0.7-0.1v-1.8c0.2,0,0.4,0,0.6,0.1c0.2,0,0.4,0,0.6,0c0.3,0,0.5-0.1,0.6-0.3c0.1-0.2,0.2-0.4,0.2-0.6c0-0.2,0-0.3-0.1-0.5
		l-2.7-7.3h2.3l1.8,5.3h0l1.7-5.3h2.2L711.7,111.2z M722.3,110.2h-7.1v-1.6l4-4.5h-3.7v-1.6h6.5v1.6l-4,4.5h4.3V110.2z M725.7,108.4
		c0.3,0.3,0.8,0.5,1.4,0.5c0.4,0,0.8-0.1,1.1-0.3c0.3-0.2,0.5-0.4,0.6-0.7h1.9c-0.3,0.9-0.8,1.6-1.4,2c-0.6,0.4-1.4,0.6-2.2,0.6
		c-0.6,0-1.2-0.1-1.6-0.3c-0.5-0.2-0.9-0.5-1.2-0.8c-0.3-0.4-0.6-0.8-0.8-1.3c-0.2-0.5-0.3-1-0.3-1.7c0-0.6,0.1-1.1,0.3-1.6
		c0.2-0.5,0.5-0.9,0.8-1.3c0.4-0.4,0.8-0.7,1.3-0.9s1-0.3,1.6-0.3c0.7,0,1.2,0.1,1.7,0.4c0.5,0.3,0.9,0.6,1.2,1
		c0.3,0.4,0.5,0.9,0.7,1.5c0.1,0.5,0.2,1.1,0.2,1.7h-5.6C725.3,107.6,725.4,108.1,725.7,108.4z"/>
</g>
<g>
	<path fill="#666766" d="M436.7,222.8L436.7,222.8c-0.3,0.6-0.8,1.1-1.2,1.4c-0.5,0.3-1.1,0.5-1.8,0.5c-0.6,0-1.1-0.1-1.5-0.3
		c-0.4-0.2-0.8-0.5-1-0.9c-0.3-0.4-0.5-0.8-0.6-1.3s-0.2-1-0.2-1.5c0-0.6,0.1-1.1,0.2-1.6c0.1-0.5,0.4-0.9,0.6-1.3
		c0.3-0.4,0.6-0.6,1.1-0.9c0.4-0.2,0.9-0.3,1.5-0.3c0.3,0,0.6,0,0.9,0.1s0.6,0.2,0.8,0.4c0.3,0.2,0.5,0.4,0.7,0.6
		c0.2,0.2,0.3,0.5,0.4,0.8h0v-4.7h0.6v10.7h-0.6V222.8z M433.9,224.2c0.5,0,0.9-0.1,1.3-0.3c0.4-0.2,0.7-0.5,0.9-0.8
		c0.2-0.3,0.4-0.7,0.5-1.1c0.1-0.4,0.2-0.9,0.2-1.3c0-0.5-0.1-0.9-0.2-1.3s-0.3-0.8-0.5-1.1c-0.2-0.3-0.5-0.6-0.9-0.8
		s-0.8-0.3-1.3-0.3c-0.5,0-0.9,0.1-1.3,0.3c-0.4,0.2-0.7,0.5-0.9,0.8c-0.2,0.3-0.4,0.7-0.5,1.1c-0.1,0.4-0.2,0.9-0.2,1.3
		c0,0.5,0.1,0.9,0.2,1.3c0.1,0.4,0.3,0.8,0.5,1.1c0.2,0.3,0.5,0.6,0.9,0.8C432.9,224.1,433.4,224.2,433.9,224.2z"/>
	<path fill="#666766" d="M439.3,220.7L439.3,220.7c0,0.5,0.1,1,0.2,1.4c0.1,0.4,0.3,0.8,0.5,1.1c0.2,0.3,0.5,0.6,0.9,0.7
		c0.4,0.2,0.8,0.3,1.2,0.3c0.8,0,1.4-0.2,1.8-0.6c0.5-0.4,0.8-1,0.9-1.7h0.6c-0.2,0.9-0.5,1.6-1.1,2.1c-0.6,0.5-1.3,0.7-2.2,0.7
		c-0.6,0-1.1-0.1-1.5-0.3c-0.4-0.2-0.8-0.5-1.1-0.8c-0.3-0.4-0.5-0.8-0.6-1.3c-0.1-0.5-0.2-1-0.2-1.6c0-0.5,0.1-1.1,0.2-1.6
		c0.1-0.5,0.4-0.9,0.7-1.3s0.7-0.7,1.1-0.9c0.4-0.2,0.9-0.3,1.5-0.3c0.5,0,1,0.1,1.4,0.3s0.8,0.5,1,0.8c0.3,0.3,0.5,0.7,0.6,1.2
		c0.1,0.5,0.2,0.9,0.2,1.5c0,0.1,0,0.1,0,0.2c0,0.1,0,0.1,0,0.2H439.3z M445,220.2c0-0.4-0.1-0.8-0.2-1.2c-0.1-0.4-0.3-0.7-0.5-1
		c-0.2-0.3-0.5-0.5-0.9-0.7s-0.7-0.3-1.2-0.3c-0.5,0-0.9,0.1-1.2,0.3c-0.4,0.2-0.6,0.4-0.9,0.7c-0.2,0.3-0.4,0.6-0.6,1
		c-0.1,0.4-0.2,0.8-0.2,1.2H445z"/>
	<path fill="#666766" d="M447.2,221.9c0,0.4,0.1,0.7,0.2,1c0.1,0.3,0.3,0.5,0.5,0.7c0.2,0.2,0.5,0.3,0.8,0.4c0.3,0.1,0.6,0.1,1,0.1
		c0.2,0,0.5,0,0.8-0.1c0.3,0,0.5-0.1,0.8-0.2c0.2-0.1,0.4-0.3,0.6-0.5c0.2-0.2,0.2-0.5,0.2-0.8c0-0.4-0.1-0.8-0.4-1s-0.6-0.4-1-0.5
		c-0.4-0.1-0.8-0.2-1.3-0.3s-0.9-0.2-1.3-0.3c-0.4-0.1-0.7-0.4-1-0.6c-0.3-0.3-0.4-0.7-0.4-1.2c0-0.4,0.1-0.7,0.3-1
		c0.2-0.3,0.4-0.5,0.7-0.6c0.3-0.2,0.6-0.3,0.9-0.3c0.3-0.1,0.7-0.1,1-0.1c0.4,0,0.8,0,1.1,0.1c0.4,0.1,0.7,0.2,0.9,0.4
		c0.3,0.2,0.5,0.5,0.6,0.8c0.1,0.3,0.2,0.7,0.2,1.1h-0.6c0-0.4-0.1-0.7-0.2-0.9c-0.1-0.2-0.3-0.5-0.5-0.6s-0.4-0.3-0.7-0.3
		s-0.6-0.1-0.9-0.1c-0.3,0-0.5,0-0.8,0.1c-0.3,0.1-0.5,0.1-0.7,0.3c-0.2,0.1-0.4,0.3-0.5,0.5c-0.1,0.2-0.2,0.4-0.2,0.7
		c0,0.3,0.1,0.6,0.2,0.8c0.1,0.2,0.3,0.3,0.6,0.5c0.2,0.1,0.5,0.2,0.8,0.3s0.6,0.1,0.9,0.2c0.4,0.1,0.7,0.2,1.1,0.2
		c0.3,0.1,0.6,0.2,0.9,0.4s0.4,0.4,0.6,0.6c0.1,0.3,0.2,0.6,0.2,1c0,0.4-0.1,0.8-0.3,1c-0.2,0.3-0.4,0.5-0.7,0.7s-0.6,0.3-1,0.3
		c-0.4,0.1-0.7,0.1-1,0.1c-0.4,0-0.8-0.1-1.2-0.2c-0.4-0.1-0.7-0.3-1-0.5c-0.3-0.2-0.5-0.5-0.7-0.9s-0.2-0.7-0.3-1.2H447.2z"/>
	<path fill="#666766" d="M454.2,215.3v-1.5h0.6v1.5H454.2z M454.2,224.5v-7.7h0.6v7.7H454.2z"/>
	<path fill="#666766" d="M463,216.8v7.3c0,0.4,0,0.8-0.2,1.3c-0.1,0.4-0.3,0.8-0.5,1.1c-0.2,0.3-0.6,0.6-1,0.7
		c-0.4,0.2-1,0.3-1.6,0.3c-0.4,0-0.8,0-1.2-0.1c-0.4-0.1-0.7-0.2-0.9-0.4c-0.3-0.2-0.5-0.4-0.7-0.7c-0.2-0.3-0.3-0.7-0.3-1.1h0.6
		c0,0.3,0.1,0.6,0.3,0.9c0.1,0.2,0.3,0.4,0.5,0.6c0.2,0.2,0.5,0.3,0.8,0.3s0.6,0.1,0.9,0.1c0.5,0,1-0.1,1.3-0.2
		c0.4-0.2,0.6-0.4,0.8-0.6c0.2-0.3,0.4-0.5,0.4-0.9c0.1-0.3,0.1-0.7,0.1-1v-1.8h0c-0.3,0.6-0.6,1-1.1,1.3c-0.5,0.3-1,0.5-1.7,0.5
		c-0.6,0-1.1-0.1-1.5-0.3c-0.4-0.2-0.8-0.5-1-0.8s-0.5-0.7-0.6-1.2s-0.2-1-0.2-1.5c0-0.5,0.1-1,0.2-1.5c0.1-0.5,0.4-0.9,0.6-1.2
		c0.3-0.3,0.6-0.6,1-0.8s0.9-0.3,1.4-0.3c0.6,0,1.2,0.2,1.7,0.5c0.5,0.3,0.9,0.8,1.1,1.3h0v-1.6H463z M459.6,217.1
		c-0.5,0-0.9,0.1-1.2,0.3c-0.3,0.2-0.6,0.4-0.9,0.8c-0.2,0.3-0.4,0.7-0.5,1.1c-0.1,0.4-0.2,0.8-0.2,1.2c0,0.5,0.1,0.9,0.2,1.3
		s0.3,0.8,0.5,1.1c0.2,0.3,0.5,0.5,0.9,0.7c0.3,0.2,0.7,0.3,1.2,0.3c0.5,0,0.9-0.1,1.2-0.3c0.4-0.2,0.6-0.4,0.9-0.7
		c0.2-0.3,0.4-0.7,0.5-1.1c0.1-0.4,0.2-0.8,0.2-1.3c0-0.4-0.1-0.8-0.2-1.2c-0.1-0.4-0.3-0.8-0.5-1.1c-0.2-0.3-0.5-0.5-0.9-0.7
		C460.5,217.2,460.1,217.1,459.6,217.1z"/>
	<path fill="#666766" d="M464.7,216.8h0.6v1.7h0c0.1-0.3,0.2-0.5,0.4-0.8c0.2-0.2,0.4-0.4,0.6-0.6s0.5-0.3,0.8-0.4
		c0.3-0.1,0.6-0.1,0.9-0.1c0.5,0,0.8,0.1,1.1,0.2c0.3,0.1,0.6,0.3,0.8,0.4s0.4,0.4,0.5,0.6c0.1,0.2,0.2,0.5,0.2,0.7
		c0,0.2,0.1,0.5,0.1,0.7c0,0.2,0,0.4,0,0.6v4.8h-0.6v-4.9c0-0.2,0-0.4,0-0.7s-0.1-0.6-0.3-0.8c-0.1-0.3-0.4-0.5-0.7-0.7
		c-0.3-0.2-0.7-0.3-1.2-0.3c-0.4,0-0.8,0.1-1.2,0.2c-0.3,0.2-0.6,0.4-0.9,0.7c-0.2,0.3-0.4,0.6-0.5,1c-0.1,0.4-0.2,0.8-0.2,1.3v4.2
		h-0.6V216.8z"/>
	<path fill="#666766" d="M476.8,215.3v-1.5h0.6v1.5H476.8z M476.8,224.5v-7.7h0.6v7.7H476.8z"/>
	<path fill="#666766" d="M482,217.3h-1.7v5.4c0,0.3,0,0.6,0.1,0.7c0.1,0.2,0.2,0.3,0.3,0.4c0.1,0.1,0.3,0.2,0.5,0.2
		c0.2,0,0.4,0,0.7,0v0.5c-0.3,0-0.6,0-0.8,0c-0.3,0-0.5-0.1-0.7-0.2s-0.4-0.3-0.5-0.6s-0.2-0.6-0.2-1v-5.4h-1.4v-0.5h1.4v-2.4h0.6
		v2.4h1.7V217.3z"/>
	<path fill="#666766" d="M483,220.7L483,220.7c0,0.5,0.1,1,0.2,1.4c0.1,0.4,0.3,0.8,0.5,1.1c0.2,0.3,0.5,0.6,0.9,0.7
		c0.4,0.2,0.8,0.3,1.2,0.3c0.8,0,1.4-0.2,1.8-0.6c0.5-0.4,0.8-1,0.9-1.7h0.6c-0.2,0.9-0.5,1.6-1.1,2.1c-0.6,0.5-1.3,0.7-2.2,0.7
		c-0.6,0-1.1-0.1-1.5-0.3c-0.4-0.2-0.8-0.5-1.1-0.8c-0.3-0.4-0.5-0.8-0.6-1.3c-0.1-0.5-0.2-1-0.2-1.6c0-0.5,0.1-1.1,0.2-1.6
		c0.1-0.5,0.4-0.9,0.7-1.3s0.7-0.7,1.1-0.9c0.4-0.2,0.9-0.3,1.5-0.3c0.5,0,1,0.1,1.4,0.3s0.8,0.5,1,0.8c0.3,0.3,0.5,0.7,0.6,1.2
		c0.1,0.5,0.2,0.9,0.2,1.5c0,0.1,0,0.1,0,0.2c0,0.1,0,0.1,0,0.2H483z M488.7,220.2c0-0.4-0.1-0.8-0.2-1.2c-0.1-0.4-0.3-0.7-0.5-1
		c-0.2-0.3-0.5-0.5-0.9-0.7s-0.7-0.3-1.2-0.3c-0.5,0-0.9,0.1-1.2,0.3c-0.4,0.2-0.6,0.4-0.9,0.7c-0.2,0.3-0.4,0.6-0.6,1
		c-0.1,0.4-0.2,0.8-0.2,1.2H488.7z"/>
	<path fill="#666766" d="M491.2,218.5L491.2,218.5c0.1-0.2,0.2-0.5,0.4-0.7c0.2-0.2,0.4-0.4,0.7-0.6c0.3-0.2,0.6-0.3,0.9-0.4
		s0.7-0.1,1-0.1v0.6c-0.3,0-0.6,0-1,0.1c-0.4,0.1-0.8,0.3-1.1,0.7c-0.1,0.1-0.3,0.3-0.4,0.4c-0.1,0.1-0.2,0.3-0.3,0.5
		c-0.1,0.2-0.1,0.4-0.2,0.6c0,0.2-0.1,0.5-0.1,0.8v4.2h-0.6v-7.7h0.6V218.5z"/>
	<path fill="#666766" d="M499.6,223L499.6,223c-0.1,0.2-0.2,0.4-0.4,0.7c-0.2,0.2-0.4,0.4-0.6,0.5s-0.5,0.3-0.8,0.4
		c-0.3,0.1-0.7,0.1-1,0.1c-0.8,0-1.5-0.2-1.9-0.5s-0.7-0.9-0.7-1.6c0-0.5,0.1-0.8,0.3-1.1s0.4-0.5,0.7-0.7c0.3-0.2,0.6-0.3,0.9-0.4
		s0.7-0.1,1-0.2l0.9-0.1c0.4,0,0.7-0.1,1-0.1c0.2-0.1,0.4-0.2,0.5-0.3c0.1-0.1,0.2-0.3,0.2-0.4s0-0.4,0-0.7c0-0.2,0-0.4-0.1-0.6
		s-0.2-0.3-0.4-0.5c-0.2-0.1-0.4-0.2-0.7-0.3c-0.3-0.1-0.6-0.1-1-0.1c-0.7,0-1.2,0.2-1.7,0.5s-0.7,0.9-0.7,1.5h-0.6
		c0-0.8,0.3-1.5,0.8-1.9c0.5-0.4,1.2-0.6,2.2-0.6c0.9,0,1.6,0.2,2,0.5c0.4,0.4,0.6,0.8,0.6,1.4v4.5c0,0.1,0,0.2,0,0.3s0,0.2,0.1,0.3
		s0.1,0.2,0.2,0.2c0.1,0.1,0.2,0.1,0.3,0.1c0.1,0,0.2,0,0.4,0v0.5c-0.2,0-0.3,0.1-0.5,0.1c-0.2,0-0.4,0-0.5-0.1
		c-0.1-0.1-0.2-0.1-0.3-0.2c-0.1-0.1-0.1-0.2-0.1-0.4c0-0.1,0-0.3,0-0.4V223z M499.6,220.1c-0.1,0.2-0.4,0.3-0.6,0.3
		c-0.3,0.1-0.6,0.1-1,0.1l-1,0.1c-0.3,0-0.6,0.1-0.8,0.1c-0.3,0.1-0.5,0.1-0.8,0.3c-0.2,0.1-0.4,0.3-0.5,0.5
		c-0.1,0.2-0.2,0.5-0.2,0.9c0,0.6,0.2,1,0.5,1.3c0.4,0.3,0.9,0.4,1.5,0.4c0.6,0,1.2-0.1,1.5-0.4c0.4-0.2,0.7-0.5,0.9-0.8
		c0.2-0.3,0.3-0.6,0.4-0.9c0.1-0.3,0.1-0.5,0.1-0.6V220.1z"/>
	<path fill="#666766" d="M504.8,217.3h-1.7v5.4c0,0.3,0,0.6,0.1,0.7c0.1,0.2,0.2,0.3,0.3,0.4c0.1,0.1,0.3,0.2,0.5,0.2
		c0.2,0,0.4,0,0.7,0v0.5c-0.3,0-0.6,0-0.8,0c-0.3,0-0.5-0.1-0.7-0.2s-0.4-0.3-0.5-0.6s-0.2-0.6-0.2-1v-5.4h-1.4v-0.5h1.4v-2.4h0.6
		v2.4h1.7V217.3z"/>
	<path fill="#666766" d="M506,215.3v-1.5h0.6v1.5H506z M506,224.5v-7.7h0.6v7.7H506z"/>
	<path fill="#666766" d="M508,220.6c0-0.5,0.1-1.1,0.2-1.6c0.2-0.5,0.4-0.9,0.7-1.3c0.3-0.4,0.7-0.7,1.1-0.9s0.9-0.3,1.5-0.3
		c0.6,0,1.1,0.1,1.5,0.3c0.4,0.2,0.8,0.5,1.1,0.9c0.3,0.4,0.5,0.8,0.7,1.3s0.2,1,0.2,1.6c0,0.6-0.1,1.1-0.2,1.6s-0.4,0.9-0.7,1.3
		c-0.3,0.4-0.7,0.7-1.1,0.9c-0.4,0.2-0.9,0.3-1.5,0.3c-0.6,0-1.1-0.1-1.5-0.3s-0.8-0.5-1.1-0.9c-0.3-0.4-0.5-0.8-0.7-1.3
		C508.1,221.7,508,221.2,508,220.6z M508.6,220.6c0,0.5,0.1,0.9,0.2,1.3s0.3,0.8,0.6,1.1c0.2,0.3,0.6,0.6,0.9,0.8s0.8,0.3,1.3,0.3
		c0.5,0,0.9-0.1,1.3-0.3s0.7-0.5,0.9-0.8c0.2-0.3,0.4-0.7,0.6-1.1s0.2-0.9,0.2-1.3c0-0.5-0.1-0.9-0.2-1.3s-0.3-0.8-0.6-1.1
		c-0.2-0.3-0.6-0.6-0.9-0.8s-0.8-0.3-1.3-0.3c-0.5,0-0.9,0.1-1.3,0.3s-0.7,0.5-0.9,0.8c-0.3,0.3-0.4,0.7-0.6,1.1
		S508.6,220.2,508.6,220.6z"/>
	<path fill="#666766" d="M516.5,216.8h0.6v1.7h0c0.1-0.3,0.2-0.5,0.4-0.8c0.2-0.2,0.4-0.4,0.6-0.6s0.5-0.3,0.8-0.4
		c0.3-0.1,0.6-0.1,0.9-0.1c0.5,0,0.8,0.1,1.1,0.2c0.3,0.1,0.6,0.3,0.8,0.4s0.4,0.4,0.5,0.6c0.1,0.2,0.2,0.5,0.2,0.7
		c0,0.2,0.1,0.5,0.1,0.7c0,0.2,0,0.4,0,0.6v4.8H522v-4.9c0-0.2,0-0.4,0-0.7s-0.1-0.6-0.3-0.8c-0.1-0.3-0.4-0.5-0.7-0.7
		c-0.3-0.2-0.7-0.3-1.2-0.3c-0.4,0-0.8,0.1-1.2,0.2c-0.3,0.2-0.6,0.4-0.9,0.7c-0.2,0.3-0.4,0.6-0.5,1c-0.1,0.4-0.2,0.8-0.2,1.3v4.2
		h-0.6V216.8z"/>
</g>
<g>
	<path fill="#666766" d="M300.6,266.5h0.6v4.6h0c0.1-0.3,0.3-0.6,0.5-0.8c0.2-0.2,0.4-0.4,0.7-0.6s0.5-0.3,0.8-0.3s0.6-0.1,0.9-0.1
		c0.6,0,1.1,0.1,1.5,0.3s0.8,0.5,1,0.8c0.3,0.3,0.5,0.8,0.6,1.2c0.1,0.5,0.2,1,0.2,1.5c0,0.9-0.1,1.7-0.4,2.2
		c-0.2,0.6-0.6,1-0.9,1.3c-0.4,0.3-0.7,0.5-1.1,0.6c-0.4,0.1-0.7,0.1-1,0.1c-0.5,0-0.9-0.1-1.3-0.2c-0.4-0.2-0.6-0.3-0.9-0.6
		c-0.2-0.2-0.4-0.4-0.5-0.6s-0.2-0.4-0.2-0.5h0v1.7h-0.6V266.5z M304.1,276.9c0.5,0,0.9-0.1,1.3-0.3c0.4-0.2,0.6-0.5,0.9-0.9
		c0.2-0.4,0.4-0.8,0.5-1.2c0.1-0.4,0.2-0.9,0.2-1.3c0-0.4-0.1-0.8-0.2-1.2c-0.1-0.4-0.3-0.8-0.5-1.1c-0.2-0.3-0.5-0.6-0.9-0.8
		c-0.3-0.2-0.7-0.3-1.2-0.3c-0.5,0-0.9,0.1-1.3,0.3s-0.7,0.4-0.9,0.7c-0.2,0.3-0.4,0.7-0.5,1.1s-0.2,0.9-0.2,1.3
		c0,0.5,0.1,0.9,0.2,1.4c0.1,0.5,0.3,0.8,0.5,1.2c0.2,0.3,0.5,0.6,0.9,0.8C303.1,276.7,303.6,276.9,304.1,276.9z"/>
	<path fill="#666766" d="M313.9,275.6L313.9,275.6c-0.1,0.2-0.2,0.4-0.4,0.7c-0.2,0.2-0.4,0.4-0.6,0.5s-0.5,0.3-0.8,0.4
		c-0.3,0.1-0.7,0.1-1,0.1c-0.8,0-1.5-0.2-1.9-0.5s-0.7-0.9-0.7-1.6c0-0.5,0.1-0.8,0.3-1.1s0.4-0.5,0.7-0.7c0.3-0.2,0.6-0.3,0.9-0.4
		s0.7-0.1,1-0.2l0.9-0.1c0.4,0,0.7-0.1,1-0.1c0.2-0.1,0.4-0.2,0.5-0.3c0.1-0.1,0.2-0.3,0.2-0.4s0-0.4,0-0.7c0-0.2,0-0.4-0.1-0.6
		s-0.2-0.3-0.4-0.5c-0.2-0.1-0.4-0.2-0.7-0.3c-0.3-0.1-0.6-0.1-1-0.1c-0.7,0-1.2,0.2-1.7,0.5s-0.7,0.9-0.7,1.5h-0.6
		c0-0.8,0.3-1.5,0.8-1.9c0.5-0.4,1.2-0.6,2.2-0.6c0.9,0,1.6,0.2,2,0.5c0.4,0.4,0.6,0.8,0.6,1.4v4.5c0,0.1,0,0.2,0,0.3s0,0.2,0.1,0.3
		s0.1,0.2,0.2,0.2c0.1,0.1,0.2,0.1,0.3,0.1c0.1,0,0.2,0,0.4,0v0.5c-0.2,0-0.3,0.1-0.5,0.1c-0.2,0-0.4,0-0.5-0.1
		c-0.1-0.1-0.2-0.1-0.3-0.2c-0.1-0.1-0.1-0.2-0.1-0.4c0-0.1,0-0.3,0-0.4V275.6z M313.9,272.8c-0.1,0.2-0.4,0.3-0.6,0.3
		c-0.3,0.1-0.6,0.1-1,0.1l-1,0.1c-0.3,0-0.6,0.1-0.8,0.1c-0.3,0.1-0.5,0.1-0.8,0.3c-0.2,0.1-0.4,0.3-0.5,0.5
		c-0.1,0.2-0.2,0.5-0.2,0.9c0,0.6,0.2,1,0.5,1.3c0.4,0.3,0.9,0.4,1.5,0.4c0.6,0,1.2-0.1,1.5-0.4c0.4-0.2,0.7-0.5,0.9-0.8
		c0.2-0.3,0.3-0.6,0.4-0.9c0.1-0.3,0.1-0.5,0.1-0.6V272.8z"/>
	<path fill="#666766" d="M322.1,271.8c0-0.3-0.1-0.6-0.3-0.9c-0.1-0.3-0.3-0.5-0.6-0.6c-0.2-0.2-0.5-0.3-0.8-0.4
		c-0.3-0.1-0.6-0.1-1-0.1c-0.5,0-0.9,0.1-1.3,0.3s-0.7,0.5-0.9,0.8s-0.4,0.7-0.6,1.1c-0.1,0.4-0.2,0.8-0.2,1.3c0,0.5,0.1,1,0.2,1.4
		c0.1,0.4,0.3,0.8,0.6,1.1c0.2,0.3,0.6,0.6,0.9,0.8c0.4,0.2,0.8,0.3,1.3,0.3c0.4,0,0.7-0.1,1-0.2c0.3-0.1,0.6-0.3,0.8-0.5
		c0.2-0.2,0.4-0.5,0.6-0.8s0.2-0.6,0.3-1h0.6c-0.1,0.5-0.2,0.9-0.4,1.2c-0.2,0.4-0.4,0.7-0.7,0.9s-0.6,0.4-1,0.6s-0.8,0.2-1.2,0.2
		c-0.6,0-1.2-0.1-1.6-0.3c-0.4-0.2-0.8-0.5-1.1-0.9c-0.3-0.4-0.5-0.8-0.6-1.3c-0.1-0.5-0.2-1-0.2-1.6s0.1-1.1,0.2-1.5
		c0.2-0.5,0.4-0.9,0.7-1.3c0.3-0.4,0.7-0.6,1.1-0.9c0.4-0.2,0.9-0.3,1.5-0.3c0.4,0,0.8,0.1,1.2,0.2c0.4,0.1,0.7,0.3,1,0.5
		s0.5,0.5,0.7,0.8c0.2,0.3,0.3,0.7,0.3,1.1H322.1z"/>
	<path fill="#666766" d="M324.1,266.5h0.6v7.1l4.8-4.1h0.8l-3.4,2.9l3.6,4.8h-0.8l-3.3-4.4l-1.8,1.5v2.9h-0.6V266.5z"/>
	<path fill="#666766" d="M338,270h-1.7v5.4c0,0.3,0,0.6,0.1,0.7c0.1,0.2,0.2,0.3,0.3,0.4c0.1,0.1,0.3,0.2,0.5,0.2c0.2,0,0.4,0,0.7,0
		v0.5c-0.3,0-0.6,0-0.8,0c-0.3,0-0.5-0.1-0.7-0.2s-0.4-0.3-0.5-0.6s-0.2-0.6-0.2-1V270h-1.4v-0.5h1.4v-2.4h0.6v2.4h1.7V270z"/>
	<path fill="#666766" d="M338.5,273.3c0-0.5,0.1-1.1,0.2-1.6c0.2-0.5,0.4-0.9,0.7-1.3c0.3-0.4,0.7-0.7,1.1-0.9s0.9-0.3,1.5-0.3
		c0.6,0,1.1,0.1,1.5,0.3c0.4,0.2,0.8,0.5,1.1,0.9c0.3,0.4,0.5,0.8,0.7,1.3s0.2,1,0.2,1.6c0,0.6-0.1,1.1-0.2,1.6s-0.4,0.9-0.7,1.3
		c-0.3,0.4-0.7,0.7-1.1,0.9c-0.4,0.2-0.9,0.3-1.5,0.3c-0.6,0-1.1-0.1-1.5-0.3s-0.8-0.5-1.1-0.9c-0.3-0.4-0.5-0.8-0.7-1.3
		C338.6,274.4,338.5,273.9,338.5,273.3z M339.1,273.3c0,0.5,0.1,0.9,0.2,1.3s0.3,0.8,0.6,1.1c0.2,0.3,0.6,0.6,0.9,0.8
		s0.8,0.3,1.3,0.3c0.5,0,0.9-0.1,1.3-0.3s0.7-0.5,0.9-0.8c0.2-0.3,0.4-0.7,0.6-1.1s0.2-0.9,0.2-1.3c0-0.5-0.1-0.9-0.2-1.3
		s-0.3-0.8-0.6-1.1c-0.2-0.3-0.6-0.6-0.9-0.8s-0.8-0.3-1.3-0.3c-0.5,0-0.9,0.1-1.3,0.3s-0.7,0.5-0.9,0.8c-0.3,0.3-0.4,0.7-0.6,1.1
		S339.1,272.9,339.1,273.3z"/>
	<path fill="#666766" d="M353.9,270h-1.7v5.4c0,0.3,0,0.6,0.1,0.7c0.1,0.2,0.2,0.3,0.3,0.4c0.1,0.1,0.3,0.2,0.5,0.2
		c0.2,0,0.4,0,0.7,0v0.5c-0.3,0-0.6,0-0.8,0c-0.3,0-0.5-0.1-0.7-0.2s-0.4-0.3-0.5-0.6s-0.2-0.6-0.2-1V270h-1.4v-0.5h1.4v-2.4h0.6
		v2.4h1.7V270z"/>
	<path fill="#666766" d="M355.5,266.5v4.7h0c0.1-0.3,0.2-0.5,0.4-0.8c0.2-0.2,0.4-0.4,0.6-0.6s0.5-0.3,0.8-0.4
		c0.3-0.1,0.6-0.1,0.9-0.1c0.5,0,0.8,0.1,1.1,0.2c0.3,0.1,0.6,0.3,0.8,0.4s0.4,0.4,0.5,0.6c0.1,0.2,0.2,0.5,0.2,0.7
		c0,0.2,0.1,0.5,0.1,0.7c0,0.2,0,0.4,0,0.6v4.8h-0.6v-4.9c0-0.2,0-0.4,0-0.7s-0.1-0.6-0.3-0.8c-0.1-0.3-0.4-0.5-0.7-0.7
		c-0.3-0.2-0.7-0.3-1.2-0.3c-0.4,0-0.8,0.1-1.2,0.2c-0.3,0.2-0.6,0.4-0.9,0.7c-0.2,0.3-0.4,0.6-0.5,1c-0.1,0.4-0.2,0.8-0.2,1.3v4.2
		H355v-10.7H355.5z"/>
	<path fill="#666766" d="M363,273.4L363,273.4c0,0.5,0.1,1,0.2,1.4c0.1,0.4,0.3,0.8,0.5,1.1c0.2,0.3,0.5,0.6,0.9,0.7
		c0.4,0.2,0.8,0.3,1.2,0.3c0.8,0,1.4-0.2,1.8-0.6c0.5-0.4,0.8-1,0.9-1.7h0.6c-0.2,0.9-0.5,1.6-1.1,2.1c-0.6,0.5-1.3,0.7-2.2,0.7
		c-0.6,0-1.1-0.1-1.5-0.3c-0.4-0.2-0.8-0.5-1.1-0.8c-0.3-0.4-0.5-0.8-0.6-1.3c-0.1-0.5-0.2-1-0.2-1.6c0-0.5,0.1-1.1,0.2-1.6
		c0.1-0.5,0.4-0.9,0.7-1.3s0.7-0.7,1.1-0.9c0.4-0.2,0.9-0.3,1.5-0.3c0.5,0,1,0.1,1.4,0.3s0.8,0.5,1,0.8c0.3,0.3,0.5,0.7,0.6,1.2
		c0.1,0.5,0.2,0.9,0.2,1.5c0,0.1,0,0.1,0,0.2c0,0.1,0,0.1,0,0.2H363z M368.6,272.9c0-0.4-0.1-0.8-0.2-1.2c-0.1-0.4-0.3-0.7-0.5-1
		c-0.2-0.3-0.5-0.5-0.9-0.7s-0.7-0.3-1.2-0.3c-0.5,0-0.9,0.1-1.2,0.3c-0.4,0.2-0.6,0.4-0.9,0.7c-0.2,0.3-0.4,0.6-0.6,1
		c-0.1,0.4-0.2,0.8-0.2,1.2H368.6z"/>
	<path fill="#666766" d="M380.7,275.5L380.7,275.5c-0.3,0.6-0.8,1.1-1.2,1.4c-0.5,0.3-1.1,0.5-1.8,0.5c-0.6,0-1.1-0.1-1.5-0.3
		c-0.4-0.2-0.8-0.5-1-0.9c-0.3-0.4-0.5-0.8-0.6-1.3s-0.2-1-0.2-1.5c0-0.6,0.1-1.1,0.2-1.6c0.1-0.5,0.4-0.9,0.6-1.3
		c0.3-0.4,0.6-0.6,1.1-0.9c0.4-0.2,0.9-0.3,1.5-0.3c0.3,0,0.6,0,0.9,0.1s0.6,0.2,0.8,0.4c0.3,0.2,0.5,0.4,0.7,0.6
		c0.2,0.2,0.3,0.5,0.4,0.8h0v-4.7h0.6v10.7h-0.6V275.5z M377.8,276.9c0.5,0,0.9-0.1,1.3-0.3c0.4-0.2,0.7-0.5,0.9-0.8
		c0.2-0.3,0.4-0.7,0.5-1.1c0.1-0.4,0.2-0.9,0.2-1.3c0-0.5-0.1-0.9-0.2-1.3s-0.3-0.8-0.5-1.1c-0.2-0.3-0.5-0.6-0.9-0.8
		s-0.8-0.3-1.3-0.3c-0.5,0-0.9,0.1-1.3,0.3c-0.4,0.2-0.7,0.5-0.9,0.8c-0.2,0.3-0.4,0.7-0.5,1.1c-0.1,0.4-0.2,0.9-0.2,1.3
		c0,0.5,0.1,0.9,0.2,1.3c0.1,0.4,0.3,0.8,0.5,1.1c0.2,0.3,0.5,0.6,0.9,0.8C376.9,276.8,377.3,276.9,377.8,276.9z"/>
	<path fill="#666766" d="M383.6,271.2L383.6,271.2c0.1-0.2,0.2-0.5,0.4-0.7c0.2-0.2,0.4-0.4,0.7-0.6c0.3-0.2,0.6-0.3,0.9-0.4
		c0.3-0.1,0.7-0.1,1-0.1v0.6c-0.3,0-0.6,0-1,0.1c-0.4,0.1-0.8,0.3-1.1,0.7c-0.1,0.1-0.3,0.3-0.4,0.4c-0.1,0.1-0.2,0.3-0.3,0.5
		c-0.1,0.2-0.1,0.4-0.2,0.6c0,0.2-0.1,0.5-0.1,0.8v4.2H383v-7.7h0.6V271.2z"/>
	<path fill="#666766" d="M392,275.6L392,275.6c-0.1,0.2-0.2,0.4-0.4,0.7c-0.2,0.2-0.4,0.4-0.6,0.5s-0.5,0.3-0.8,0.4
		c-0.3,0.1-0.7,0.1-1,0.1c-0.8,0-1.5-0.2-1.9-0.5s-0.7-0.9-0.7-1.6c0-0.5,0.1-0.8,0.3-1.1s0.4-0.5,0.7-0.7c0.3-0.2,0.6-0.3,0.9-0.4
		s0.7-0.1,1-0.2l0.9-0.1c0.4,0,0.7-0.1,1-0.1c0.2-0.1,0.4-0.2,0.5-0.3c0.1-0.1,0.2-0.3,0.2-0.4s0-0.4,0-0.7c0-0.2,0-0.4-0.1-0.6
		s-0.2-0.3-0.4-0.5c-0.2-0.1-0.4-0.2-0.7-0.3c-0.3-0.1-0.6-0.1-1-0.1c-0.7,0-1.2,0.2-1.7,0.5s-0.7,0.9-0.7,1.5H387
		c0-0.8,0.3-1.5,0.8-1.9c0.5-0.4,1.2-0.6,2.2-0.6c0.9,0,1.6,0.2,2,0.5c0.4,0.4,0.6,0.8,0.6,1.4v4.5c0,0.1,0,0.2,0,0.3s0,0.2,0.1,0.3
		s0.1,0.2,0.2,0.2c0.1,0.1,0.2,0.1,0.3,0.1c0.1,0,0.2,0,0.4,0v0.5c-0.2,0-0.3,0.1-0.5,0.1c-0.2,0-0.4,0-0.5-0.1
		c-0.1-0.1-0.2-0.1-0.3-0.2c-0.1-0.1-0.1-0.2-0.1-0.4c0-0.1,0-0.3,0-0.4V275.6z M392,272.8c-0.1,0.2-0.4,0.3-0.6,0.3
		c-0.3,0.1-0.6,0.1-1,0.1l-1,0.1c-0.3,0-0.6,0.1-0.8,0.1c-0.3,0.1-0.5,0.1-0.8,0.3c-0.2,0.1-0.4,0.3-0.5,0.5
		c-0.1,0.2-0.2,0.5-0.2,0.9c0,0.6,0.2,1,0.5,1.3c0.4,0.3,0.9,0.4,1.5,0.4c0.6,0,1.2-0.1,1.5-0.4c0.4-0.2,0.7-0.5,0.9-0.8
		c0.2-0.3,0.3-0.6,0.4-0.9c0.1-0.3,0.1-0.5,0.1-0.6V272.8z"/>
	<path fill="#666766" d="M396.3,276.5L396.3,276.5l2.1-7h0.8l2.1,7h0l2.2-7h0.6l-2.5,7.7H401l-2.1-7h0l-2.1,7H396l-2.4-7.7h0.6
		L396.3,276.5z"/>
	<path fill="#666766" d="M405.1,268v-1.5h0.6v1.5H405.1z M405.1,277.2v-7.7h0.6v7.7H405.1z"/>
	<path fill="#666766" d="M407.5,269.5h0.6v1.7h0c0.1-0.3,0.2-0.5,0.4-0.8c0.2-0.2,0.4-0.4,0.6-0.6s0.5-0.3,0.8-0.4
		c0.3-0.1,0.6-0.1,0.9-0.1c0.5,0,0.8,0.1,1.1,0.2c0.3,0.1,0.6,0.3,0.8,0.4s0.4,0.4,0.5,0.6c0.1,0.2,0.2,0.5,0.2,0.7
		c0,0.2,0.1,0.5,0.1,0.7c0,0.2,0,0.4,0,0.6v4.8H413v-4.9c0-0.2,0-0.4,0-0.7s-0.1-0.6-0.3-0.8c-0.1-0.3-0.4-0.5-0.7-0.7
		c-0.3-0.2-0.7-0.3-1.2-0.3c-0.4,0-0.8,0.1-1.2,0.2c-0.3,0.2-0.6,0.4-0.9,0.7c-0.2,0.3-0.4,0.6-0.5,1c-0.1,0.4-0.2,0.8-0.2,1.3v4.2
		h-0.6V269.5z"/>
	<path fill="#666766" d="M421.6,269.5v7.3c0,0.4,0,0.8-0.2,1.3c-0.1,0.4-0.3,0.8-0.5,1.1c-0.2,0.3-0.6,0.6-1,0.7
		c-0.4,0.2-1,0.3-1.6,0.3c-0.4,0-0.8,0-1.2-0.1c-0.4-0.1-0.7-0.2-0.9-0.4c-0.3-0.2-0.5-0.4-0.7-0.7c-0.2-0.3-0.3-0.7-0.3-1.1h0.6
		c0,0.3,0.1,0.6,0.3,0.9c0.1,0.2,0.3,0.4,0.5,0.6c0.2,0.2,0.5,0.3,0.8,0.3s0.6,0.1,0.9,0.1c0.5,0,1-0.1,1.3-0.2
		c0.4-0.2,0.6-0.4,0.8-0.6c0.2-0.3,0.4-0.5,0.4-0.9c0.1-0.3,0.1-0.7,0.1-1v-1.8h0c-0.3,0.6-0.6,1-1.1,1.3c-0.5,0.3-1,0.5-1.7,0.5
		c-0.6,0-1.1-0.1-1.5-0.3c-0.4-0.2-0.8-0.5-1-0.8s-0.5-0.7-0.6-1.2s-0.2-1-0.2-1.5c0-0.5,0.1-1,0.2-1.5c0.1-0.5,0.4-0.9,0.6-1.2
		c0.3-0.3,0.6-0.6,1-0.8s0.9-0.3,1.4-0.3c0.6,0,1.2,0.2,1.7,0.5c0.5,0.3,0.9,0.8,1.1,1.3h0v-1.6H421.6z M418.3,269.8
		c-0.5,0-0.9,0.1-1.2,0.3c-0.3,0.2-0.6,0.4-0.9,0.8c-0.2,0.3-0.4,0.7-0.5,1.1c-0.1,0.4-0.2,0.8-0.2,1.2c0,0.5,0.1,0.9,0.2,1.3
		s0.3,0.8,0.5,1.1c0.2,0.3,0.5,0.5,0.9,0.7c0.3,0.2,0.7,0.3,1.2,0.3c0.5,0,0.9-0.1,1.2-0.3c0.4-0.2,0.6-0.4,0.9-0.7
		c0.2-0.3,0.4-0.7,0.5-1.1c0.1-0.4,0.2-0.8,0.2-1.3c0-0.4-0.1-0.8-0.2-1.2c-0.1-0.4-0.3-0.8-0.5-1.1c-0.2-0.3-0.5-0.5-0.9-0.7
		C419.1,269.9,418.7,269.8,418.3,269.8z"/>
	<path fill="#666766" d="M427.6,266.5h0.6v4.6h0c0.1-0.3,0.3-0.6,0.5-0.8c0.2-0.2,0.4-0.4,0.7-0.6s0.5-0.3,0.8-0.3s0.6-0.1,0.9-0.1
		c0.6,0,1.1,0.1,1.5,0.3s0.8,0.5,1,0.8c0.3,0.3,0.5,0.8,0.6,1.2c0.1,0.5,0.2,1,0.2,1.5c0,0.9-0.1,1.7-0.4,2.2
		c-0.2,0.6-0.6,1-0.9,1.3c-0.4,0.3-0.7,0.5-1.1,0.6c-0.4,0.1-0.7,0.1-1,0.1c-0.5,0-0.9-0.1-1.3-0.2c-0.4-0.2-0.6-0.3-0.9-0.6
		c-0.2-0.2-0.4-0.4-0.5-0.6s-0.2-0.4-0.2-0.5h0v1.7h-0.6V266.5z M431.2,276.9c0.5,0,0.9-0.1,1.3-0.3c0.4-0.2,0.6-0.5,0.9-0.9
		c0.2-0.4,0.4-0.8,0.5-1.2c0.1-0.4,0.2-0.9,0.2-1.3c0-0.4-0.1-0.8-0.2-1.2c-0.1-0.4-0.3-0.8-0.5-1.1c-0.2-0.3-0.5-0.6-0.9-0.8
		c-0.3-0.2-0.7-0.3-1.2-0.3c-0.5,0-0.9,0.1-1.3,0.3s-0.7,0.4-0.9,0.7c-0.2,0.3-0.4,0.7-0.5,1.1s-0.2,0.9-0.2,1.3
		c0,0.5,0.1,0.9,0.2,1.4c0.1,0.5,0.3,0.8,0.5,1.2c0.2,0.3,0.5,0.6,0.9,0.8C430.2,276.7,430.6,276.9,431.2,276.9z"/>
	<path fill="#666766" d="M435.5,273.3c0-0.5,0.1-1.1,0.2-1.6c0.2-0.5,0.4-0.9,0.7-1.3c0.3-0.4,0.7-0.7,1.1-0.9s0.9-0.3,1.5-0.3
		c0.6,0,1.1,0.1,1.5,0.3c0.4,0.2,0.8,0.5,1.1,0.9c0.3,0.4,0.5,0.8,0.7,1.3s0.2,1,0.2,1.6c0,0.6-0.1,1.1-0.2,1.6s-0.4,0.9-0.7,1.3
		c-0.3,0.4-0.7,0.7-1.1,0.9c-0.4,0.2-0.9,0.3-1.5,0.3c-0.6,0-1.1-0.1-1.5-0.3s-0.8-0.5-1.1-0.9c-0.3-0.4-0.5-0.8-0.7-1.3
		C435.6,274.4,435.5,273.9,435.5,273.3z M436.1,273.3c0,0.5,0.1,0.9,0.2,1.3s0.3,0.8,0.6,1.1c0.2,0.3,0.6,0.6,0.9,0.8
		s0.8,0.3,1.3,0.3c0.5,0,0.9-0.1,1.3-0.3s0.7-0.5,0.9-0.8c0.2-0.3,0.4-0.7,0.6-1.1s0.2-0.9,0.2-1.3c0-0.5-0.1-0.9-0.2-1.3
		s-0.3-0.8-0.6-1.1c-0.2-0.3-0.6-0.6-0.9-0.8s-0.8-0.3-1.3-0.3c-0.5,0-0.9,0.1-1.3,0.3s-0.7,0.5-0.9,0.8c-0.3,0.3-0.4,0.7-0.6,1.1
		S436.1,272.9,436.1,273.3z"/>
	<path fill="#666766" d="M449,275.6L449,275.6c-0.1,0.2-0.2,0.4-0.4,0.7c-0.2,0.2-0.4,0.4-0.6,0.5s-0.5,0.3-0.8,0.4
		c-0.3,0.1-0.7,0.1-1,0.1c-0.8,0-1.5-0.2-1.9-0.5s-0.7-0.9-0.7-1.6c0-0.5,0.1-0.8,0.3-1.1s0.4-0.5,0.7-0.7c0.3-0.2,0.6-0.3,0.9-0.4
		s0.7-0.1,1-0.2l0.9-0.1c0.4,0,0.7-0.1,1-0.1c0.2-0.1,0.4-0.2,0.5-0.3c0.1-0.1,0.2-0.3,0.2-0.4s0-0.4,0-0.7c0-0.2,0-0.4-0.1-0.6
		s-0.2-0.3-0.4-0.5c-0.2-0.1-0.4-0.2-0.7-0.3c-0.3-0.1-0.6-0.1-1-0.1c-0.7,0-1.2,0.2-1.7,0.5s-0.7,0.9-0.7,1.5h-0.6
		c0-0.8,0.3-1.5,0.8-1.9c0.5-0.4,1.2-0.6,2.2-0.6c0.9,0,1.6,0.2,2,0.5c0.4,0.4,0.6,0.8,0.6,1.4v4.5c0,0.1,0,0.2,0,0.3s0,0.2,0.1,0.3
		s0.1,0.2,0.2,0.2c0.1,0.1,0.2,0.1,0.3,0.1c0.1,0,0.2,0,0.4,0v0.5c-0.2,0-0.3,0.1-0.5,0.1c-0.2,0-0.4,0-0.5-0.1
		c-0.1-0.1-0.2-0.1-0.3-0.2c-0.1-0.1-0.1-0.2-0.1-0.4c0-0.1,0-0.3,0-0.4V275.6z M449,272.8c-0.1,0.2-0.4,0.3-0.6,0.3
		c-0.3,0.1-0.6,0.1-1,0.1l-1,0.1c-0.3,0-0.6,0.1-0.8,0.1c-0.3,0.1-0.5,0.1-0.8,0.3c-0.2,0.1-0.4,0.3-0.5,0.5
		c-0.1,0.2-0.2,0.5-0.2,0.9c0,0.6,0.2,1,0.5,1.3c0.4,0.3,0.9,0.4,1.5,0.4c0.6,0,1.2-0.1,1.5-0.4c0.4-0.2,0.7-0.5,0.9-0.8
		c0.2-0.3,0.3-0.6,0.4-0.9c0.1-0.3,0.1-0.5,0.1-0.6V272.8z"/>
	<path fill="#666766" d="M452,271.2L452,271.2c0.1-0.2,0.2-0.5,0.4-0.7c0.2-0.2,0.4-0.4,0.7-0.6c0.3-0.2,0.6-0.3,0.9-0.4
		s0.7-0.1,1-0.1v0.6c-0.3,0-0.6,0-1,0.1c-0.4,0.1-0.8,0.3-1.1,0.7c-0.1,0.1-0.3,0.3-0.4,0.4c-0.1,0.1-0.2,0.3-0.3,0.5
		c-0.1,0.2-0.1,0.4-0.2,0.6c0,0.2-0.1,0.5-0.1,0.8v4.2h-0.6v-7.7h0.6V271.2z"/>
	<path fill="#666766" d="M461.3,275.5L461.3,275.5c-0.3,0.6-0.8,1.1-1.2,1.4c-0.5,0.3-1.1,0.5-1.8,0.5c-0.6,0-1.1-0.1-1.5-0.3
		c-0.4-0.2-0.8-0.5-1-0.9c-0.3-0.4-0.5-0.8-0.6-1.3s-0.2-1-0.2-1.5c0-0.6,0.1-1.1,0.2-1.6c0.1-0.5,0.4-0.9,0.6-1.3
		c0.3-0.4,0.6-0.6,1.1-0.9c0.4-0.2,0.9-0.3,1.5-0.3c0.3,0,0.6,0,0.9,0.1s0.6,0.2,0.8,0.4c0.3,0.2,0.5,0.4,0.7,0.6
		c0.2,0.2,0.3,0.5,0.4,0.8h0v-4.7h0.6v10.7h-0.6V275.5z M458.5,276.9c0.5,0,0.9-0.1,1.3-0.3c0.4-0.2,0.7-0.5,0.9-0.8
		c0.2-0.3,0.4-0.7,0.5-1.1c0.1-0.4,0.2-0.9,0.2-1.3c0-0.5-0.1-0.9-0.2-1.3s-0.3-0.8-0.5-1.1c-0.2-0.3-0.5-0.6-0.9-0.8
		s-0.8-0.3-1.3-0.3c-0.5,0-0.9,0.1-1.3,0.3c-0.4,0.2-0.7,0.5-0.9,0.8c-0.2,0.3-0.4,0.7-0.5,1.1c-0.1,0.4-0.2,0.9-0.2,1.3
		c0,0.5,0.1,0.9,0.2,1.3c0.1,0.4,0.3,0.8,0.5,1.1c0.2,0.3,0.5,0.6,0.9,0.8C457.5,276.8,458,276.9,458.5,276.9z"/>
</g>
<ellipse fill="#231F20" stroke="#231F20" stroke-width="3" stroke-miterlimit="10" cx="140.8" cy="107.6" rx="24" ry="0"/>
<ellipse fill="#231F20" stroke="#231F20" stroke-width="3" stroke-miterlimit="10" cx="311.3" cy="107.6" rx="15.5" ry="0"/>
<ellipse fill="#231F20" stroke="#231F20" stroke-width="3" stroke-miterlimit="10" cx="466.5" cy="107.6" rx="14.7" ry="0"/>
<ellipse fill="#231F20" stroke="#231F20" stroke-width="3" stroke-miterlimit="10" cx="618" cy="107.6" rx="12.2" ry="0"/>
</svg>
